HIERARCHY
ROOT Root
{
  OFFSET 0.0 0.0 0.0
  CHANNELS 6 Xposition Yposition Zposition Zrotation Yrotation Xrotation
  JOINT Hips
  {
    OFFSET 0.0 100.0 0.0
    CHANNELS 6 Xposition Yposition Zposition Zrotation Yrotation Xrotation
    JOINT Spine1
    {
      OFFSET -0.013727 5.003763 -0.053727
      CHANNELS 3 Zrotation Yrotation Xrotation
      JOINT Spine2
      {
        OFFSET -0.0 7.125301 -0.029825
        CHANNELS 3 Zrotation Yrotation Xrotation
        JOINT Chest
        {
          OFFSET -1e-06 7.550063 -0.815971
          CHANNELS 3 Zrotation Yrotation Xrotation
          JOINT Neck1
          {
            OFFSET -0.181677 26.311295 -0.553348
            CHANNELS 3 Zrotation Yrotation Xrotation
            JOINT Neck2
            {
              OFFSET -3e-06 7.709397 2.302585
              CHANNELS 3 Zrotation Yrotation Xrotation
              JOINT Head
              {
                OFFSET -5e-06 6.128916 1.953709
                CHANNELS 3 Zrotation Yrotation Xrotation
                JOINT HeadEnd
                {
                  OFFSET 0.003598 16.065403 -1.835379
                  CHANNELS 3 Zrotation Yrotation Xrotation
                }
                JOINT Jaw
                {
                  OFFSET 0.002637 0.475592 3.094941
                  CHANNELS 3 Zrotation Yrotation Xrotation
                }
                JOINT LeftEye
                {
                  OFFSET 3.206381 5.380205 7.586883
                  CHANNELS 3 Zrotation Yrotation Xrotation
                }
                JOINT RightEye
                {
                  OFFSET -3.22244 5.361869 7.558234
                  CHANNELS 3 Zrotation Yrotation Xrotation
                }
              }
            }
          }
          JOINT LeftShoulder
          {
            OFFSET 1.621652 23.237164 5.113413
            CHANNELS 3 Zrotation Yrotation Xrotation
            JOINT LeftArm
            {
              OFFSET 14.919846 2e-06 -5.502326
              CHANNELS 3 Zrotation Yrotation Xrotation
              JOINT LeftForeArm
              {
                OFFSET 28.739307 0.0 -0.002588
                CHANNELS 3 Zrotation Yrotation Xrotation
                JOINT LeftHand
                {
                  OFFSET 27.093981 -1e-06 0.002609
                  CHANNELS 3 Zrotation Yrotation Xrotation
                  JOINT LeftHandThumb1
                  {
                    OFFSET 2.276482 -1.392045 3.191413
                    CHANNELS 3 Zrotation Yrotation Xrotation
                    JOINT LeftHandThumb2
                    {
                      OFFSET 4.012836 -1.828127 1.641654
                      CHANNELS 3 Zrotation Yrotation Xrotation
                      JOINT LeftHandThumb3
                      {
                        OFFSET 2.798515 0.0 -3e-06
                        CHANNELS 3 Zrotation Yrotation Xrotation
                        JOINT LeftHandThumbEnd
                        {
                          OFFSET 3.180793 -4e-06 4e-06
                          CHANNELS 3 Zrotation Yrotation Xrotation
                        }
                      }
                    }
                  }
                  JOINT LeftHandIndex1
                  {
                    OFFSET 3.247555 -0.531998 2.296169
                    CHANNELS 3 Zrotation Yrotation Xrotation
                    JOINT LeftHandIndex2
                    {
                      OFFSET 6.364578 0.01206 0.1786
                      CHANNELS 3 Zrotation Yrotation Xrotation
                      JOINT LeftHandIndex3
                      {
                        OFFSET 3.662364 0.0 0.0
                        CHANNELS 3 Zrotation Yrotation Xrotation
                        JOINT LeftHandIndex4
                        {
                          OFFSET 2.329242 4e-06 4e-06
                          CHANNELS 3 Zrotation Yrotation Xrotation
                          JOINT LeftHandIndexEnd
                          {
                            OFFSET 2.759615 -0.180537 -0.113024
                            CHANNELS 3 Zrotation Yrotation Xrotation
                          }
                        }
                      }
                    }
                  }
                  JOINT LeftHandMiddle1
                  {
                    OFFSET 3.163495 0.240981 1.000332
                    CHANNELS 3 Zrotation Yrotation Xrotation
                    JOINT LeftHandMiddle2
                    {
                      OFFSET 6.19078 -0.259278 -1.002548
                      CHANNELS 3 Zrotation Yrotation Xrotation
                      JOINT LeftHandMiddle3
                      {
                        OFFSET 4.35652 -4e-06 -1e-06
                        CHANNELS 3 Zrotation Yrotation Xrotation
                        JOINT LeftHandMiddle4
                        {
                          OFFSET 2.996877 -8e-06 0.0
                          CHANNELS 3 Zrotation Yrotation Xrotation
                          JOINT LeftHandMiddleEnd
                          {
                            OFFSET 2.304287 -0.294569 -0.031741
                            CHANNELS 3 Zrotation Yrotation Xrotation
                          }
                        }
                      }
                    }
                  }
                  JOINT LeftHandRing1
                  {
                    OFFSET 2.882643 -0.053652 -0.322543
                    CHANNELS 3 Zrotation Yrotation Xrotation
                    JOINT LeftHandRing2
                    {
                      OFFSET 5.854541 -0.486202 -1.373841
                      CHANNELS 3 Zrotation Yrotation Xrotation
                      JOINT LeftHandRing3
                      {
                        OFFSET 4.350578 0.0 3e-06
                        CHANNELS 3 Zrotation Yrotation Xrotation
                        JOINT LeftHandRing4
                        {
                          OFFSET 2.651321 7e-06 2e-06
                          CHANNELS 3 Zrotation Yrotation Xrotation
                          JOINT LeftHandRingEnd
                          {
                            OFFSET 1.936105 0.077687 -7.1e-05
                            CHANNELS 3 Zrotation Yrotation Xrotation
                          }
                        }
                      }
                    }
                  }
                  JOINT LeftHandPinky1
                  {
                    OFFSET 2.8655 -0.310005 -1.600378
                    CHANNELS 3 Zrotation Yrotation Xrotation
                    JOINT LeftHandPinky2
                    {
                      OFFSET 5.087849 -1.331141 -1.77123
                      CHANNELS 3 Zrotation Yrotation Xrotation
                      JOINT LeftHandPinky3
                      {
                        OFFSET 3.070974 4e-06 0.0
                        CHANNELS 3 Zrotation Yrotation Xrotation
                        JOINT LeftHandPinky4
                        {
                          OFFSET 1.549672 0.0 1e-06
                          CHANNELS 3 Zrotation Yrotation Xrotation
                          JOINT LeftHandPinkyEnd
                          {
                            OFFSET 1.944893 -0.157802 0.057219
                            CHANNELS 3 Zrotation Yrotation Xrotation
                          }
                        }
                      }
                    }
                  }
                }
              }
            }
          }
          JOINT RightShoulder
          {
            OFFSET -1.380118 23.180309 5.214158
            CHANNELS 3 Zrotation Yrotation Xrotation
            JOINT RightArm
            {
              OFFSET -15.037196 1.2e-05 -5.545604
              CHANNELS 3 Zrotation Yrotation Xrotation
              JOINT RightForeArm
              {
                OFFSET -28.736639 2e-06 -0.002597
                CHANNELS 3 Zrotation Yrotation Xrotation
                JOINT RightHand
                {
                  OFFSET -27.133619 -0.0 0.002613
                  CHANNELS 3 Zrotation Yrotation Xrotation
                  JOINT RightHandThumb1
                  {
                    OFFSET -2.274032 -1.383988 3.163127
                    CHANNELS 3 Zrotation Yrotation Xrotation
                    JOINT RightHandThumb2
                    {
                      OFFSET -4.011429 -1.827466 1.640914
                      CHANNELS 3 Zrotation Yrotation Xrotation
                      JOINT RightHandThumb3
                      {
                        OFFSET -2.794935 -4e-06 -3e-06
                        CHANNELS 3 Zrotation Yrotation Xrotation
                        JOINT RightHandThumbEnd
                        {
                          OFFSET -3.183852 4e-06 1e-06
                          CHANNELS 3 Zrotation Yrotation Xrotation
                        }
                      }
                    }
                  }
                  JOINT RightHandIndex1
                  {
                    OFFSET -3.253266 -0.520057 2.282866
                    CHANNELS 3 Zrotation Yrotation Xrotation
                    JOINT RightHandIndex2
                    {
                      OFFSET -6.341917 0.012471 0.178266
                      CHANNELS 3 Zrotation Yrotation Xrotation
                      JOINT RightHandIndex3
                      {
                        OFFSET -3.654871 -8e-06 -0.0
                        CHANNELS 3 Zrotation Yrotation Xrotation
                        JOINT RightHandIndex4
                        {
                          OFFSET -2.327586 0.0 1e-06
                          CHANNELS 3 Zrotation Yrotation Xrotation
                          JOINT RightHandIndexEnd
                          {
                            OFFSET -2.76179 -0.180656 -0.113078
                            CHANNELS 3 Zrotation Yrotation Xrotation
                          }
                        }
                      }
                    }
                  }
                  JOINT RightHandMiddle1
                  {
                    OFFSET -3.168106 0.246593 1.00103
                    CHANNELS 3 Zrotation Yrotation Xrotation
                    JOINT RightHandMiddle2
                    {
                      OFFSET -6.180828 -0.258836 -1.000895
                      CHANNELS 3 Zrotation Yrotation Xrotation
                      JOINT RightHandMiddle3
                      {
                        OFFSET -4.348901 0.0 -0.0
                        CHANNELS 3 Zrotation Yrotation Xrotation
                        JOINT RightHandMiddle4
                        {
                          OFFSET -3.00024 -4e-06 -2e-06
                          CHANNELS 3 Zrotation Yrotation Xrotation
                          JOINT RightHandMiddleEnd
                          {
                            OFFSET -2.30252 -0.29437 -0.031706
                            CHANNELS 3 Zrotation Yrotation Xrotation
                          }
                        }
                      }
                    }
                  }
                  JOINT RightHandRing1
                  {
                    OFFSET -2.88569 -0.067952 -0.308858
                    CHANNELS 3 Zrotation Yrotation Xrotation
                    JOINT RightHandRing2
                    {
                      OFFSET -5.854198 -0.48613 -1.373731
                      CHANNELS 3 Zrotation Yrotation Xrotation
                      JOINT RightHandRing3
                      {
                        OFFSET -4.33881 -4e-06 -0.0
                        CHANNELS 3 Zrotation Yrotation Xrotation
                        JOINT RightHandRing4
                        {
                          OFFSET -2.654903 -4e-06 4e-06
                          CHANNELS 3 Zrotation Yrotation Xrotation
                          JOINT RightHandRingEnd
                          {
                            OFFSET -1.933568 0.077527 -5.2e-05
                            CHANNELS 3 Zrotation Yrotation Xrotation
                          }
                        }
                      }
                    }
                  }
                  JOINT RightHandPinky1
                  {
                    OFFSET -2.866425 -0.342796 -1.584145
                    CHANNELS 3 Zrotation Yrotation Xrotation
                    JOINT RightHandPinky2
                    {
                      OFFSET -5.091371 -1.332055 -1.772385
                      CHANNELS 3 Zrotation Yrotation Xrotation
                      JOINT RightHandPinky3
                      {
                        OFFSET -3.062664 -4e-06 1e-06
                        CHANNELS 3 Zrotation Yrotation Xrotation
                        JOINT RightHandPinky4
                        {
                          OFFSET -1.546529 4e-06 -2e-06
                          CHANNELS 3 Zrotation Yrotation Xrotation
                          JOINT RightHandPinkyEnd
                          {
                            OFFSET -1.945119 -0.157718 0.057211
                            CHANNELS 3 Zrotation Yrotation Xrotation
                          }
                        }
                      }
                    }
                  }
                }
              }
            }
          }
        }
      }
    }
    JOINT LeftLeg
    {
      OFFSET 10.043214 -8.434526 2.595655
      CHANNELS 3 Zrotation Yrotation Xrotation
      JOINT LeftShin
      {
        OFFSET -1e-06 -43.221752 -0.802913
        CHANNELS 3 Zrotation Yrotation Xrotation
        JOINT LeftFoot
        {
          OFFSET 1e-06 -42.155094 -3.481523
          CHANNELS 3 Zrotation Yrotation Xrotation
          JOINT LeftToeBase
          {
            OFFSET 0.0 -5.059472 13.231529
            CHANNELS 3 Zrotation Yrotation Xrotation
            JOINT LeftToeEnd
            {
              OFFSET -0.009607 -1.647619 6.513017
              CHANNELS 3 Zrotation Yrotation Xrotation
            }
          }
        }
      }
    }
    JOINT RightLeg
    {
      OFFSET -10.047278 -8.29526 2.620317
      CHANNELS 3 Zrotation Yrotation Xrotation
      JOINT RightShin
      {
        OFFSET 1e-06 -43.362206 -0.805556
        CHANNELS 3 Zrotation Yrotation Xrotation
        JOINT RightFoot
        {
          OFFSET 2e-06 -42.117393 -3.478398
          CHANNELS 3 Zrotation Yrotation Xrotation
          JOINT RightToeBase
          {
            OFFSET -0.0 -5.079609 13.284196
            CHANNELS 3 Zrotation Yrotation Xrotation
            JOINT RightToeEnd
            {
              OFFSET 0.009532 -1.634378 6.460591
              CHANNELS 3 Zrotation Yrotation Xrotation
            }
          }
        }
      }
    }
  }
}
MOTION
Frames: 4
Frame Time: 0.03333333333333333
0.0 0.0 0.0 0.0 -0.0 0.0 0.854007 47.677605 -2.900374 -3.923275 2.342555 57.535839 0.935334 0.267888 11.71911 0.075634 0.223813 0.11049 1.566705 -1.131596 10.229117 4.959278 2.678116 -0.294232 -1.268463 0.245425 -3.650632 -1.575314 -1.318661 -2.497989 7.7e-05 -2.2e-05 6e-06 0.106642 -0.047113 -0.246232 0.927685 -3.715702 -10.571233 -0.71959 3.632076 -10.592737 11.193119 -15.101666 2.494158 -28.91383 -59.440815 -2.885303 -0.948208 -13.077564 0.349155 76.361526 6.529583 -8.469033 -5.882094 9.861272 0.702589 -10.936852 -0.360577 7.156195 5e-06 8.774816 -0.0 -15.581443 17.799955 6.793083 -1.844029 2.498499 -2.507276 -10.163584 4.678936 4.621101 -20.975992 -1.1e-05 -2e-06 -21.226255 2.451685 -3.593996 1e-06 -6e-06 -1e-06 -1.362679 2.240796 -0.746323 -21.334881 0.584904 3.008316 -13.82119 -7e-06 1e-06 -23.887133 -0.249088 -0.839484 -59.834488 2.09829 -0.681089 -0.294024 1.679685 0.833255 -14.218186 0.09321 1.300576 -34.211994 -0.287576 0.967167 -20.03318 0.964529 1.212843 -0.0 0.0 0.0 -3.440383 0.788231 0.501655 -15.928164 -3.16731 2.999701 -6.338817 -3e-06 1e-06 -18.123417 3.648172 -4.905665 -3e-06 0.0 -4e-06 -14.240268 25.374176 -0.221241 30.331596 59.014763 -17.617771 0.199146 10.710152 -0.010736 -70.639717 21.252434 -3.812086 2.243537 -5.255025 -3.180153 14.282866 -0.826592 6.95249 -5e-06 -12.690582 5e-06 16.79846 -18.3396 2.577235 1.665663 -1.955916 -2.878295 4.727789 -4.17058 4.993919 11.020508 6e-06 -2e-06 12.109034 -3.735708 -2.86678 -0.0 0.0 1e-06 1.291984 -1.928546 -1.498087 14.800101 0.567469 3.865601 14.242546 -1.34173 -6.660648 19.631935 0.143931 -0.648243 49.770638 -0.45016 -6.416917 0.353027 -1.511147 -0.031939 20.222754 3.684307 2.316623 18.787237 9e-06 -1e-06 10.751608 -0.479866 1.397904 -1e-06 0.0 1e-06 3.273802 0.305947 -0.58011 21.486776 11.830358 2.266122 8.162911 3e-06 -1e-06 18.39905 -3.798976 -4.940565 2e-06 1e-06 -1e-06 5.620619 0.001991 -76.392036 0.41254 1.467768 117.517929 -0.142253 6.381428 40.971973 2.044209 -2.083906 -1.218478 0.0 0.0 2e-06 -2.171023 -0.302873 -67.971916 0.27013 0.647459 107.59771 4.548844 -10.874886 50.479755 -2.100634 1.144067 5.151705 -0.0 -0.0 -1e-06 
0.0 0.0 0.0 0.0 -0.0 0.0 0.786437 47.773003 -2.161541 -3.764202 2.664511 57.749413 1.188397 0.259377 11.650824 0.099731 0.283084 -0.001265 1.692054 -1.160438 10.350609 4.784902 2.387408 0.317446 -1.263601 0.086941 -3.646775 -1.505486 -1.460339 -2.360885 7.7e-05 -2.3e-05 6e-06 0.060692 -0.039343 -0.262336 0.862231 -3.708161 -10.590689 -0.744343 3.638131 -10.624126 10.659568 -15.333034 2.871757 -29.306324 -59.155251 -3.21786 -0.75776 -13.205344 0.340282 76.438438 5.453952 -8.709568 -5.882098 9.861276 0.702588 -10.936859 -0.360579 7.156199 1e-06 8.774819 -2e-06 -15.512985 17.838665 6.834136 -1.84403 2.498503 -2.507276 -10.163588 4.678938 4.621103 -20.976004 -6e-06 2e-06 -21.226263 2.451692 -3.593998 1e-06 -6e-06 -1e-06 -1.36268 2.240798 -0.746323 -21.334887 0.584906 3.008318 -13.821199 -4e-06 2e-06 -23.887142 -0.249083 -0.839482 -59.913559 2.154556 -0.701215 -0.294025 1.679686 0.833255 -14.218193 0.093213 1.300579 -34.212009 -0.287568 0.96717 -20.033192 0.964533 1.212844 -0.0 0.0 0.0 -3.440385 0.788231 0.501655 -15.928168 -3.16731 2.999705 -6.338821 -2e-06 1e-06 -18.123426 3.648177 -4.905669 -3e-06 1e-06 -2e-06 -14.210093 25.241562 0.164211 30.150009 59.224026 -18.508986 0.054925 10.791947 -0.03836 -71.281052 21.686756 -3.836257 2.243538 -5.255033 -3.180156 14.282875 -0.826589 6.952496 -3e-06 -12.690593 -2e-06 16.735455 -18.308035 2.589184 1.665664 -1.95592 -2.878296 4.727793 -4.170583 4.993919 11.020517 5e-06 -2e-06 12.109038 -3.735711 -2.866783 1e-06 -0.0 -1e-06 1.291984 -1.928548 -1.498089 14.800115 0.567471 3.865604 14.242558 -1.341733 -6.660654 19.631948 0.14393 -0.648245 49.817089 -0.449985 -6.432391 0.353028 -1.511149 -0.03194 20.222769 3.68431 2.316628 18.787254 8e-06 -0.0 10.751619 -0.479867 1.397905 0.0 0.0 0.0 3.273804 0.305947 -0.58011 21.486792 11.830366 2.266133 8.162917 3e-06 1e-06 18.399063 -3.798978 -4.940569 3e-06 1e-06 -1e-06 5.775009 -0.197937 -75.796234 0.346497 1.44046 116.799103 -0.022068 5.800549 40.632866 2.026304 -2.083843 -1.410817 -0.0 0.0 0.0 -1.873158 -0.741795 -67.33625 0.207349 0.569119 106.711082 3.977775 -11.450459 50.692238 -2.112988 1.16435 5.003961 -0.0 -0.0 -1e-06 
0.0 0.0 0.0 0.0 -0.0 0.0 0.710343 47.921665 -1.318181 -3.336326 2.91626 57.836555 1.359633 0.264616 11.566278 0.134674 0.289663 -0.087416 1.79105 -1.317828 10.594512 4.645996 2.096554 1.078072 -1.331642 -0.103439 -3.652377 -1.428702 -1.640904 -2.157989 7.7e-05 -2.2e-05 5e-06 0.023415 -0.033112 -0.266771 0.805879 -3.710321 -10.655741 -0.760932 3.649396 -10.687 10.193843 -15.683373 3.236675 -29.922779 -58.439106 -3.369928 -0.506075 -13.71526 0.330486 76.188728 4.585835 -9.304594 -5.882097 9.861276 0.70259 -10.936855 -0.360577 7.156198 -1e-06 8.774816 -1e-06 -15.440872 17.88735 6.863164 -1.844031 2.498502 -2.507275 -10.163588 4.678941 4.621104 -20.975996 -3e-06 3e-06 -21.226254 2.451694 -3.593997 -1e-06 -6e-06 -1e-06 -1.36268 2.240796 -0.746322 -21.334887 0.584908 3.008321 -13.821198 -3e-06 4e-06 -23.887138 -0.249078 -0.83948 -59.96344 2.239229 -0.703827 -0.294024 1.679685 0.833255 -14.218191 0.093215 1.300579 -34.212002 -0.287563 0.967171 -20.033188 0.964536 1.212843 -0.0 0.0 0.0 -3.440384 0.788232 0.501655 -15.928165 -3.167306 2.999703 -6.338819 -1e-06 1e-06 -18.123425 3.64818 -4.905663 -3e-06 0.0 -3e-06 -14.206193 25.241549 0.502568 30.234625 59.177639 -19.537691 -0.104169 11.092675 -0.052801 -72.163673 22.469194 -3.320094 2.24354 -5.255032 -3.180155 14.282875 -0.826592 6.952494 -1e-06 -12.690593 -1e-06 16.670748 -18.184864 2.574382 1.665665 -1.95592 -2.878295 4.727794 -4.170584 4.993917 11.020515 4e-06 -1e-06 12.10904 -3.735711 -2.866781 1e-06 0.0 0.0 1.291984 -1.928546 -1.498087 14.800115 0.567468 3.865602 14.242559 -1.341734 -6.660651 19.631952 0.143927 -0.648245 49.712513 -0.448446 -6.472296 0.353029 -1.511149 -0.03194 20.222769 3.684308 2.316626 18.787254 6e-06 -0.0 10.751617 -0.479867 1.397904 1e-06 1e-06 0.0 3.273804 0.305946 -0.580111 21.486795 11.830365 2.266129 8.162917 2e-06 -0.0 18.399065 -3.79898 -4.940571 3e-06 1e-06 -1e-06 5.753553 -0.616304 -74.797974 0.273888 1.371263 115.830254 -0.127638 4.927058 40.084846 1.993814 -2.055932 -1.796841 -0.0 -0.0 1e-06 -1.649053 -1.399437 -66.339745 0.170052 0.544829 105.705467 3.576447 -12.104869 50.505276 -2.12533 1.172453 4.786503 -0.0 -0.0 -1e-06 
0.0 0.0 0.0 0.0 -0.0 0.0 0.565221 48.169792 -0.376849 -2.689911 3.04558 57.953262 1.413594 0.353769 11.424034 0.348426 0.182135 -0.161032 1.732849 -1.512284 10.863274 4.490121 1.826345 1.857331 -1.381656 -0.367652 -3.608089 -1.360798 -1.85987 -1.881116 7.7e-05 -2.3e-05 6e-06 0.037524 -0.034579 -0.25648 0.812275 -3.722181 -10.7215 -0.738401 3.656288 -10.729676 9.590555 -16.100267 3.580423 -30.503178 -57.398979 -3.754283 -0.401666 -14.634 0.352272 75.647408 3.552383 -9.608799 -5.882102 9.861283 0.702587 -10.936865 -0.360576 7.1562 1e-06 8.774822 -2e-06 -15.270239 17.878557 6.829245 -1.844032 2.498505 -2.507276 -10.163591 4.67894 4.621104 -20.976007 -5e-06 1e-06 -21.226271 2.451693 -3.594 -0.0 -6e-06 -1e-06 -1.362681 2.240797 -0.746324 -21.334898 0.584905 3.008321 -13.821206 -4e-06 -0.0 -23.887156 -0.249081 -0.839485 -59.808716 2.191281 -0.934393 -0.294024 1.679688 0.833255 -14.218199 0.093214 1.300579 -34.212032 -0.287567 0.967169 -20.033201 0.964535 1.212845 -0.0 -0.0 -1e-06 -3.440387 0.788233 0.501655 -15.928176 -3.167308 2.999704 -6.338823 -1e-06 1e-06 -18.123436 3.648181 -4.90567 -4e-06 1e-06 -4e-06 -14.089684 25.231449 0.873274 30.496895 59.101982 -20.709757 -0.231881 11.400898 -0.060567 -73.270363 23.735373 -2.884485 2.243541 -5.255033 -3.180156 14.282881 -0.826593 6.952498 -4e-06 -12.690597 0.0 16.478254 -18.106911 2.691738 1.665666 -1.955921 -2.878298 4.727796 -4.170585 4.99392 11.020518 4e-06 -1e-06 12.109041 -3.735713 -2.866783 -0.0 0.0 0.0 1.291985 -1.928549 -1.498089 14.800118 0.567469 3.865604 14.242562 -1.341733 -6.660655 19.631954 0.143929 -0.648245 49.683659 -0.514746 -6.31194 0.353029 -1.511149 -0.03194 20.222778 3.684309 2.316628 18.78726 6e-06 -1e-06 10.751619 -0.479867 1.397905 -0.0 -0.0 1e-06 3.273804 0.305947 -0.580111 21.486799 11.830368 2.26613 8.162922 2e-06 0.0 18.399067 -3.798981 -4.940572 3e-06 1e-06 -1e-06 5.559225 -1.229094 -73.602615 0.245698 1.295991 114.656189 -0.084716 3.73481 39.673489 1.922123 -2.034397 -2.673743 -0.0 0.0 -0.0 -1.65309 -2.162374 -65.150154 0.136997 0.53668 104.692307 3.094323 -13.164522 49.472252 -2.112696 1.101899 5.232613 -0.0 -0.0 -1e-06 
